<svg width="625" height="48" viewBox="0 0 625 48" fill="none" xmlns="http://www.w3.org/2000/svg">
<path d="M0 2.86261C0 1.28163 1.28163 0 2.86261 0H44.8475C46.4285 0 47.7101 1.28163 47.7101 2.86261V44.8475C47.7101 46.4285 46.4285 47.7101 44.8475 47.7101H2.86261C1.28163 47.7101 0 46.4285 0 44.8475V2.86261Z" fill="#FFFAFC"/>
<path d="M52.4817 2.86261C52.4817 1.28163 53.7633 0 55.3443 0H97.3292C98.9102 0 100.192 1.28163 100.192 2.86261V44.8475C100.192 46.4285 98.9102 47.7101 97.3292 47.7101H55.3443C53.7633 47.7101 52.4817 46.4285 52.4817 44.8475V2.86261Z" fill="#FEF6F9"/>
<path d="M104.963 2.86261C104.963 1.28163 106.245 0 107.826 0H149.811C151.392 0 152.673 1.28163 152.673 2.86261V44.8475C152.673 46.4285 151.392 47.7101 149.811 47.7101H107.826C106.245 47.7101 104.963 46.4285 104.963 44.8475V2.86261Z" fill="#F8E2EA"/>
<path d="M157.445 2.86261C157.445 1.28163 158.727 0 160.308 0H202.293C203.874 0 205.155 1.28163 205.155 2.86261V44.8475C205.155 46.4285 203.874 47.7101 202.293 47.7101H160.308C158.727 47.7101 157.445 46.4285 157.445 44.8475V2.86261Z" fill="#F4D2DE"/>
<path d="M209.927 2.86261C209.927 1.28163 211.208 0 212.789 0H254.774C256.355 0 257.637 1.28163 257.637 2.86261V44.8475C257.637 46.4285 256.355 47.7101 254.774 47.7101H212.789C211.208 47.7101 209.927 46.4285 209.927 44.8475V2.86261Z" fill="#F0C2D3"/>
<path d="M262.408 2.86261C262.408 1.28163 263.69 0 265.271 0H307.256C308.837 0 310.119 1.28163 310.119 2.86261V44.8475C310.119 46.4285 308.837 47.7101 307.256 47.7101H265.271C263.69 47.7101 262.408 46.4285 262.408 44.8475V2.86261Z" fill="#D98CA8"/>
<path d="M314.89 2.86261C314.89 1.28163 316.172 0 317.753 0H359.738C361.319 0 362.6 1.28163 362.6 2.86261V44.8475C362.6 46.4285 361.319 47.7101 359.738 47.7101H317.753C316.172 47.7101 314.89 46.4285 314.89 44.8475V2.86261Z" fill="#D98CA8"/>
<path d="M367.364 2.86261C367.364 1.28163 368.646 0 370.227 0H412.212C413.792 0 415.074 1.28163 415.074 2.86261V44.8475C415.074 46.4285 413.792 47.7101 412.212 47.7101H370.227C368.646 47.7101 367.364 46.4285 367.364 44.8475V2.86261Z" fill="#CC668B"/>
<path d="M419.846 2.86261C419.846 1.28163 421.127 0 422.708 0H464.693C466.274 0 467.556 1.28163 467.556 2.86261V44.8475C467.556 46.4285 466.274 47.7101 464.693 47.7101H422.708C421.127 47.7101 419.846 46.4285 419.846 44.8475V2.86261Z" fill="#993358"/>
<path d="M472.327 2.86261C472.327 1.28163 473.609 0 475.19 0H517.175C518.756 0 520.038 1.28163 520.038 2.86261V44.8475C520.038 46.4285 518.756 47.7101 517.175 47.7101H475.19C473.609 47.7101 472.327 46.4285 472.327 44.8475V2.86261Z" fill="#7D193E"/>
<path d="M524.809 2.86261C524.809 1.28163 526.091 0 527.672 0H569.657C571.238 0 572.519 1.28163 572.519 2.86261V44.8475C572.519 46.4285 571.238 47.7101 569.657 47.7101H527.672C526.091 47.7101 524.809 46.4285 524.809 44.8475V2.86261Z" fill="#4D0F26"/>
<path d="M577.291 2.86261C577.291 1.28163 578.572 0 580.153 0H622.138C623.719 0 625.001 1.28163 625.001 2.86261V44.8475C625.001 46.4285 623.719 47.7101 622.138 47.7101H580.153C578.572 47.7101 577.291 46.4285 577.291 44.8475V2.86261Z" fill="#2B0815"/>
</svg>
