<svg width="637" height="49" viewBox="0 0 637 49" fill="none" xmlns="http://www.w3.org/2000/svg">
<path d="M0 2.91755C0 1.30623 1.30623 0 2.91755 0H45.7083C47.3197 0 48.6259 1.30623 48.6259 2.91755V45.7083C48.6259 47.3197 47.3197 48.6259 45.7083 48.6259H2.91755C1.30623 48.6259 0 47.3197 0 45.7083V2.91755Z" fill="#FCFCFD"/>
<path d="M53.489 2.91755C53.489 1.30623 54.7952 0 56.4065 0H99.1973C100.809 0 102.115 1.30623 102.115 2.91755V45.7083C102.115 47.3197 100.809 48.6259 99.1973 48.6259H56.4065C54.7952 48.6259 53.489 47.3197 53.489 45.7083V2.91755Z" fill="#F9F9FA"/>
<path d="M106.978 2.91755C106.978 1.30623 108.284 0 109.895 0H152.686C154.298 0 155.604 1.30623 155.604 2.91755V45.7083C155.604 47.3197 154.298 48.6259 152.686 48.6259H109.895C108.284 48.6259 106.978 47.3197 106.978 45.7083V2.91755Z" fill="#F1F0F1"/>
<path d="M160.467 2.91755C160.467 1.30623 161.773 0 163.384 0H206.175C207.787 0 209.093 1.30623 209.093 2.91755V45.7083C209.093 47.3197 207.787 48.6259 206.175 48.6259H163.384C161.773 48.6259 160.467 47.3197 160.467 45.7083V2.91755Z" fill="#E9E8EA"/>
<path d="M213.956 2.91755C213.956 1.30623 215.262 0 216.873 0H259.664C261.276 0 262.582 1.30623 262.582 2.91755V45.7083C262.582 47.3197 261.276 48.6259 259.664 48.6259H216.873C215.262 48.6259 213.956 47.3197 213.956 45.7083V2.91755Z" fill="#E1E0E3"/>
<path d="M267.445 2.91755C267.445 1.30623 268.751 0 270.362 0H313.153C314.764 0 316.071 1.30623 316.071 2.91755V45.7083C316.071 47.3197 314.764 48.6259 313.153 48.6259H270.362C268.751 48.6259 267.445 47.3197 267.445 45.7083V2.91755Z" fill="#DAD9DB"/>
<path d="M320.934 2.91755C320.934 1.30623 322.24 0 323.851 0H366.642C368.253 0 369.56 1.30623 369.56 2.91755V45.7083C369.56 47.3197 368.253 48.6259 366.642 48.6259H323.851C322.24 48.6259 320.934 47.3197 320.934 45.7083V2.91755Z" fill="#CFCDD0"/>
<path d="M374.423 2.91755C374.423 1.30623 375.729 0 377.34 0H420.131C421.742 0 423.049 1.30623 423.049 2.91755V45.7083C423.049 47.3197 421.742 48.6259 420.131 48.6259H377.34C375.729 48.6259 374.423 47.3197 374.423 45.7083V2.91755Z" fill="#BBBABD"/>
<path d="M427.912 2.91755C427.912 1.30623 429.218 0 430.829 0H473.62C475.231 0 476.538 1.30623 476.538 2.91755V45.7083C476.538 47.3197 475.231 48.6259 473.62 48.6259H430.829C429.218 48.6259 427.912 47.3197 427.912 45.7083V2.91755Z" fill="#8E8D8F"/>
<path d="M481.393 2.91755C481.393 1.30623 482.699 0 484.31 0H527.101C528.713 0 530.019 1.30623 530.019 2.91755V45.7083C530.019 47.3197 528.713 48.6259 527.101 48.6259H484.31C482.699 48.6259 481.393 47.3197 481.393 45.7083V2.91755Z" fill="#828183"/>
<path d="M534.882 2.91755C534.882 1.30623 536.188 0 537.799 0H580.59C582.202 0 583.508 1.30623 583.508 2.91755V45.7083C583.508 47.3197 582.202 48.6259 580.59 48.6259H537.799C536.188 48.6259 534.882 47.3197 534.882 45.7083V2.91755Z" fill="#656366"/>
<path d="M588.371 2.91755C588.371 1.30623 589.677 0 591.288 0H634.079C635.69 0 636.997 1.30623 636.997 2.91755V45.7083C636.997 47.3197 635.69 48.6259 634.079 48.6259H591.288C589.677 48.6259 588.371 47.3197 588.371 45.7083V2.91755Z" fill="#222123"/>
</svg>
