<svg width="24" height="24" viewBox="0 0 24 24" fill="none" xmlns="http://www.w3.org/2000/svg">
<g clip-path="url(#clip0_980_2778)">
<path d="M11.9974 20.0002L11.0224 19.0342L4.49737 12.5722C4.00268 12.0908 3.61301 11.5122 3.35292 10.8728C3.09282 10.2334 2.96793 9.54713 2.98611 8.85711C3.00428 8.16709 3.16513 7.48831 3.45853 6.86351C3.75192 6.23871 4.17151 5.68143 4.69086 5.22676C5.21021 4.77208 5.81808 4.42987 6.47618 4.22166C7.13429 4.01345 7.82838 3.94376 8.51474 4.01698C9.2011 4.0902 9.86487 4.30473 10.4642 4.64708C11.0636 4.98943 11.5856 5.45218 11.9974 6.00618C12.7582 4.99416 13.8747 4.30847 15.1214 4.08752C16.368 3.86657 17.6521 4.12681 18.7144 4.81572C19.7767 5.50462 20.5381 6.57089 20.8449 7.79928C21.1517 9.02767 20.981 10.3267 20.3674 11.4342" stroke="#222123" stroke-width="2" stroke-linecap="round" stroke-linejoin="round"/>
<path d="M15 18C15 18.7956 15.3161 19.5587 15.8787 20.1213C16.4413 20.6839 17.2044 21 18 21C18.7956 21 19.5587 20.6839 20.1213 20.1213C20.6839 19.5587 21 18.7956 21 18C21 17.2044 20.6839 16.4413 20.1213 15.8787C19.5587 15.3161 18.7956 15 18 15C17.2044 15 16.4413 15.3161 15.8787 15.8787C15.3161 16.4413 15 17.2044 15 18Z" stroke="#222123" stroke-width="2" stroke-linecap="round" stroke-linejoin="round"/>
<path d="M20.2031 20.2002L22.0031 22.0002" stroke="#222123" stroke-width="2" stroke-linecap="round" stroke-linejoin="round"/>
</g>
<defs>
<clipPath id="clip0_980_2778">
<rect width="24" height="24" fill="white"/>
</clipPath>
</defs>
</svg>
