<svg width="24" height="24" viewBox="0 0 24 24" fill="none" xmlns="http://www.w3.org/2000/svg">
<g clip-path="url(#clip0_980_2769)">
<path d="M9.72737 17.7532L4.49737 12.5722C4.00268 12.0908 3.61301 11.5122 3.35292 10.8728C3.09282 10.2334 2.96793 9.54713 2.98611 8.85711C3.00428 8.16709 3.16513 7.48831 3.45853 6.86351C3.75192 6.23871 4.17151 5.68143 4.69086 5.22676C5.21021 4.77208 5.81808 4.42987 6.47618 4.22166C7.13429 4.01345 7.82838 3.94376 8.51474 4.01698C9.2011 4.0902 9.86487 4.30473 10.4642 4.64708C11.0636 4.98943 11.5856 5.45218 11.9974 6.00618C12.7358 5.02405 13.8101 4.34823 15.0151 4.1077C16.2201 3.86718 17.4714 4.0788 18.5303 4.70218C19.5892 5.32555 20.3815 6.31702 20.756 7.48735C21.1304 8.65768 21.0608 9.92491 20.5604 11.0472" stroke="#222123" stroke-width="2" stroke-linecap="round" stroke-linejoin="round"/>
<path d="M17.8022 20.817L15.6302 21.955C15.5657 21.9885 15.4932 22.0035 15.4208 21.9982C15.3483 21.9929 15.2787 21.9676 15.2198 21.9251C15.1609 21.8826 15.1149 21.8245 15.0871 21.7574C15.0593 21.6903 15.0506 21.6167 15.0622 21.545L15.4772 19.134L13.7202 17.427C13.6677 17.3763 13.6306 17.3119 13.613 17.2411C13.5955 17.1703 13.5981 17.096 13.6208 17.0266C13.6434 16.9573 13.6851 16.8957 13.741 16.8489C13.797 16.8021 13.8649 16.772 13.9372 16.762L16.3652 16.41L17.4512 14.217C17.4837 14.1517 17.5337 14.0967 17.5957 14.0583C17.6577 14.0199 17.7292 13.9995 17.8022 13.9995C17.8751 13.9995 17.9466 14.0199 18.0086 14.0583C18.0707 14.0967 18.1207 14.1517 18.1532 14.217L19.2392 16.41L21.6672 16.762C21.7392 16.7723 21.8069 16.8027 21.8626 16.8495C21.9184 16.8963 21.9598 16.9578 21.9824 17.027C22.005 17.0962 22.0078 17.1703 21.9904 17.241C21.973 17.3117 21.9363 17.3761 21.8842 17.427L20.1272 19.134L20.5412 21.544C20.5536 21.6158 20.5456 21.6898 20.5182 21.7573C20.4907 21.8249 20.4448 21.8834 20.3858 21.9262C20.3267 21.969 20.2569 21.9944 20.1841 21.9995C20.1114 22.0046 20.0386 21.9891 19.9742 21.955L17.8022 20.817Z" stroke="#222123" stroke-width="2" stroke-linecap="round" stroke-linejoin="round"/>
</g>
<defs>
<clipPath id="clip0_980_2769">
<rect width="24" height="24" fill="white"/>
</clipPath>
</defs>
</svg>
