<svg width="24" height="24" viewBox="0 0 24 24" fill="none" xmlns="http://www.w3.org/2000/svg">
<g clip-path="url(#clip0_980_2795)">
<path d="M11.9974 20.0002L4.49737 12.5722C4.00268 12.0908 3.61301 11.5122 3.35292 10.8728C3.09282 10.2334 2.96793 9.54713 2.98611 8.85711C3.00428 8.16709 3.16513 7.48831 3.45853 6.86351C3.75192 6.23871 4.17151 5.68143 4.69086 5.22676C5.21021 4.77208 5.81808 4.42987 6.47618 4.22166C7.13429 4.01345 7.82838 3.94376 8.51474 4.01698C9.2011 4.0902 9.86487 4.30473 10.4642 4.64708C11.0636 4.98943 11.5856 5.45218 11.9974 6.00618C12.8 4.95061 13.9892 4.25715 15.3031 4.07833C16.6171 3.89952 17.9483 4.25 19.0039 5.05268C20.0594 5.85535 20.7529 7.04448 20.9317 8.35845C21.1105 9.67242 20.76 11.0036 19.9574 12.0592" stroke="#222123" stroke-width="2" stroke-linecap="round" stroke-linejoin="round"/>
<path d="M16 19H22" stroke="#222123" stroke-width="2" stroke-linecap="round" stroke-linejoin="round"/>
<path d="M19 16V22" stroke="#222123" stroke-width="2" stroke-linecap="round" stroke-linejoin="round"/>
</g>
<defs>
<clipPath id="clip0_980_2795">
<rect width="24" height="24" fill="white"/>
</clipPath>
</defs>
</svg>
