<svg width="24" height="24" viewBox="0 0 24 24" fill="none" xmlns="http://www.w3.org/2000/svg">
<g clip-path="url(#clip0_980_2790)">
<path d="M14.1024 17.9152L11.9974 20.0002L4.49737 12.5722C4.00268 12.0908 3.61301 11.5122 3.35292 10.8728C3.09282 10.2334 2.96793 9.54713 2.98611 8.85711C3.00428 8.16709 3.16513 7.48831 3.45853 6.86351C3.75192 6.23871 4.17151 5.68143 4.69086 5.22676C5.21021 4.77208 5.81808 4.42987 6.47618 4.22166C7.13429 4.01345 7.82838 3.94376 8.51474 4.01698C9.2011 4.0902 9.86487 4.30473 10.4642 4.64708C11.0636 4.98943 11.5856 5.45218 11.9974 6.00618C12.7406 5.01713 13.824 4.33873 15.0384 4.10213C16.2527 3.86552 17.5116 4.0875 18.5718 4.72516C19.6319 5.36282 20.418 6.37088 20.7781 7.55447C21.1382 8.73806 21.0468 10.0131 20.5214 11.1332" stroke="#222123" stroke-width="2" stroke-linecap="round" stroke-linejoin="round"/>
<path d="M19 22V22.01" stroke="#222123" stroke-width="2" stroke-linecap="round" stroke-linejoin="round"/>
<path d="M19 18.9998C19.4483 18.9983 19.8832 18.8466 20.235 18.5687C20.5868 18.2909 20.8352 17.903 20.9406 17.4673C21.0459 17.0315 21.0019 16.5731 20.8158 16.1652C20.6297 15.7574 20.3122 15.4238 19.914 15.2178C19.5162 15.014 19.0611 14.9508 18.6228 15.0385C18.1845 15.1262 17.7888 15.3596 17.5 15.7008" stroke="#222123" stroke-width="2" stroke-linecap="round" stroke-linejoin="round"/>
</g>
<defs>
<clipPath id="clip0_980_2790">
<rect width="24" height="24" fill="white"/>
</clipPath>
</defs>
</svg>
