<svg width="24" height="24" viewBox="0 0 24 24" fill="none" xmlns="http://www.w3.org/2000/svg">
<g clip-path="url(#clip0_980_2764)">
<path d="M11.9974 20.0002L4.49737 12.5722C4.00268 12.0908 3.61301 11.5122 3.35292 10.8728C3.09282 10.2334 2.96793 9.54713 2.98611 8.85711C3.00428 8.16709 3.16513 7.48831 3.45853 6.86351C3.75192 6.23871 4.17151 5.68143 4.69086 5.22676C5.21021 4.77208 5.81808 4.42987 6.47618 4.22166C7.13429 4.01345 7.82838 3.94376 8.51474 4.01698C9.2011 4.0902 9.86487 4.30473 10.4642 4.64708C11.0636 4.98943 11.5856 5.45218 11.9974 6.00618C12.3974 5.47942 12.898 5.03728 13.4702 4.70537C14.0423 4.37345 14.6746 4.15836 15.3305 4.07254C15.9863 3.98672 16.6527 4.03189 17.291 4.20543C17.9293 4.37897 18.5268 4.67743 19.0489 5.08352C19.571 5.48961 20.0074 5.99526 20.3327 6.57118C20.658 7.1471 20.8658 7.78185 20.9441 8.43865C21.0223 9.09545 20.9695 9.76126 20.7886 10.3975C20.6078 11.0337 20.3024 11.6278 19.8904 12.1452" stroke="#222123" stroke-width="2" stroke-linecap="round" stroke-linejoin="round"/>
<path d="M19 22V16" stroke="#222123" stroke-width="2" stroke-linecap="round" stroke-linejoin="round"/>
<path d="M22 19L19 16L16 19" stroke="#222123" stroke-width="2" stroke-linecap="round" stroke-linejoin="round"/>
</g>
<defs>
<clipPath id="clip0_980_2764">
<rect width="24" height="24" fill="white"/>
</clipPath>
</defs>
</svg>
