<svg width="24" height="24" viewBox="0 0 24 24" fill="none" xmlns="http://www.w3.org/2000/svg">
<g clip-path="url(#clip0_980_2759)">
<path d="M19.4974 12.5722L18.9974 13.0002M12.9974 19.0002L11.9974 20.0002L4.49737 12.5722C4.00268 12.0908 3.61301 11.5122 3.35292 10.8728C3.09282 10.2334 2.96793 9.54713 2.98611 8.85711C3.00428 8.16709 3.16513 7.48831 3.45853 6.86351C3.75192 6.23871 4.17151 5.68143 4.69086 5.22676C5.21021 4.77208 5.81808 4.42987 6.47618 4.22166C7.13429 4.01345 7.82838 3.94376 8.51474 4.01698C9.2011 4.0902 9.86487 4.30473 10.4642 4.64708C11.0636 4.98943 11.5856 5.45218 11.9974 6.00618C12.4109 5.4562 12.9335 4.9975 13.5325 4.65878C14.1314 4.32007 14.7939 4.10863 15.4783 4.0377C16.1627 3.96677 16.8545 4.03787 17.5101 4.24657C18.1658 4.45526 18.7714 4.79705 19.2889 5.25054C19.8064 5.70403 20.2248 6.25946 20.5178 6.88207C20.8108 7.50468 20.9721 8.18106 20.9917 8.86889C21.0112 9.55671 20.8886 10.2412 20.6315 10.8794C20.3744 11.5177 19.9883 12.096 19.4974 12.5782" stroke="#222123" stroke-width="2" stroke-linecap="round" stroke-linejoin="round"/>
<path d="M22 22L17 17" stroke="#222123" stroke-width="2" stroke-linecap="round" stroke-linejoin="round"/>
<path d="M17 22L22 17" stroke="#222123" stroke-width="2" stroke-linecap="round" stroke-linejoin="round"/>
</g>
<defs>
<clipPath id="clip0_980_2759">
<rect width="24" height="24" fill="white"/>
</clipPath>
</defs>
</svg>
